# xmcd
#
# Track frame offsets:
#	150
#	21784
#	40074
#	61205
#	81469
#	99636
#	121186
#	139830
#	159774
#	179229
#
# Disc length: 2551 seconds
#
# Revision: 1
# Processed by: cddbd v1.5.2PL0 Copyright (c) Steve Scherf et al.
# Submitted via: audiograbber 1.83.01
#
DISCID=8109f50a
DTITLE=Kevin Spencer - Remembering Rusty
DYEAR=2007
DGENRE=Gospel
TTITLE0=Remembering Rusty
TTITLE1=Leavin' On My Mind
TTITLE2=Who Am I
TTITLE3=Look For Me
TTITLE4=Family Band
TTITLE5=He Chose Me
TTITLE6=You Make It Rain For Me
TTITLE7=Lord Paint My Mind
TTITLE8=Headin' Home
TTITLE9=I Wouldn't Take Nothing For My Journey Now
EXTD=
EXTT0=
EXTT1=
EXTT2=
EXTT3=
EXTT4=
EXTT5=
EXTT6=
EXTT7=
EXTT8=
EXTT9=
PLAYORDER=
